<svg width="26" height="26" viewBox="0 0 26 26" fill="none" xmlns="http://www.w3.org/2000/svg">
<path d="M8.84002 23.8333C4.31169 23.8333 3.40169 21.0925 4.87502 17.7558L9.47919 7.30166H9.15419C8.81627 7.30251 8.48149 7.23676 8.16899 7.10817C7.85649 6.97958 7.5724 6.79066 7.33295 6.55222C7.0935 6.31377 6.90339 6.03048 6.77349 5.71853C6.64358 5.40657 6.57642 5.07208 6.57585 4.73416C6.57585 3.32582 7.72419 2.16666 9.14335 2.16666H16.8459C17.5609 2.16666 18.2 2.45916 18.6659 2.92499C19.2725 3.53166 19.5759 4.41999 19.3484 5.36249C19.0559 6.53249 17.9292 7.30166 16.7267 7.30166H16.5534L21.125 17.7667C22.5875 21.1033 21.6342 23.8333 17.1492 23.8333H8.84002Z" stroke="white" stroke-width="1.5" stroke-linecap="round" stroke-linejoin="round"/>
<path d="M6.43506 14.2133C6.43506 14.2133 9.75006 14.0833 13.0001 15.1667C16.2501 16.25 19.3159 14.2025 19.3159 14.2025" stroke="white" stroke-width="1.5" stroke-linecap="round" stroke-linejoin="round"/>
</svg>
