<svg width="26" height="26" viewBox="0 0 26 26" fill="none" xmlns="http://www.w3.org/2000/svg">
<path d="M23.6275 4.26832C21.9591 8.42832 17.7775 14.0833 14.2783 16.8892L12.1441 18.6008C11.8733 18.7958 11.6025 18.9692 11.2991 19.0883C11.2991 18.8933 11.2883 18.6767 11.2558 18.4708C11.1366 17.5608 10.725 16.7158 9.99915 15.99C9.26248 15.2533 8.36331 14.82 7.44248 14.7008C7.22581 14.69 7.00915 14.6683 6.79248 14.69C6.91165 14.3542 7.09581 14.04 7.32331 13.78L9.01331 11.6458C11.8083 8.14666 17.485 3.94332 21.6341 2.28582C22.2733 2.04749 22.8908 2.22082 23.2808 2.62166C23.6925 3.02249 23.8875 3.63999 23.6275 4.26832Z" stroke="white" stroke-width="1.5" stroke-linecap="round" stroke-linejoin="round"/>
<path d="M15.4266 15.6758C15.4266 12.8483 13.1299 10.5516 10.3024 10.5516M11.2991 19.0883C11.2991 20.28 10.8441 21.4175 9.98822 22.2841C9.32739 22.945 8.42822 23.4 7.35572 23.5408L4.69072 23.8333C3.23906 23.9958 1.99322 22.7608 2.16656 21.2875L2.45906 18.6225C2.71906 16.25 4.70156 14.7333 6.80322 14.69C7.01989 14.6791 7.24739 14.69 7.45322 14.7008C8.37406 14.82 9.27322 15.2425 10.0099 15.99C10.7357 16.7158 11.1474 17.5608 11.2666 18.4708C11.2774 18.6766 11.2991 18.8825 11.2991 19.0883Z" stroke="white" stroke-width="1.5" stroke-linecap="round" stroke-linejoin="round"/>
<path d="M14.5925 22.6092C16.185 24.2017 17.7992 24.2017 19.3917 22.6092L22.5983 19.4025C24.2125 17.7883 24.2125 16.1958 22.5983 14.5816L21.7967 13.7908L18.59 16.9867M3.36918 11.3858C1.77668 9.77165 1.77668 8.17915 3.36918 6.56498L6.57585 3.35832C8.16835 1.76582 9.78251 1.76582 11.375 3.35832L12.1767 4.15998M12.1875 4.17082L8.17918 8.17915" stroke="white" stroke-width="1.5" stroke-linecap="round"/>
</svg>
